# xmcd
#
# Track frame offsets:
#	182
#	6332
#	17600
#	31285
#	42647
#	52412
#	62482
#	69615
#	77587
#	86730
#	94897
#	107127
#	114982
#	130182
#	137747
#	152152
#	160857
#	169195
#	180597
#
# Disc length: 2567 seconds
#
# Revision: 3
# Processed by: cddbd v1.5.1PL0 Copyright (c) Steve Scherf et al.
# Submitted via: EasyCDDAExtractor 7.5.0.1
#
DISCID=010a0513
DTITLE=Jim Reeves - Radio Days
DYEAR=1900
DGENRE=Country
TTITLE0=Have I Told You Lately That I Love You
TTITLE1=Just Call Me Lonesome
TTITLE2=How's The World Treating You
TTITLE3=If Heartaches Is The Fashion
TTITLE4=Home
TTITLE5=Dear Hearts And Gentle People
TTITLE6=I'm Beginning To Forget You
TTITLE7=Roly Poly
TTITLE8=The Wind Up
TTITLE9=Sweet Evening Breeze
TTITLE10=Your Old Love Letters
TTITLE11=Till The End Of The World
TTITLE12=Making Believe
TTITLE13=The Oklahoma Hills
TTITLE14=The Highway To Nowhere
TTITLE15=If You Were Mine
TTITLE16=Everywhere You Go
TTITLE17=I Love You More
TTITLE18=I've Lived A Lot In My Time
EXTD=
EXTT0=
EXTT1=
EXTT2=
EXTT3=
EXTT4=
EXTT5=
EXTT6=
EXTT7=
EXTT8=
EXTT9=
EXTT10=
EXTT11=
EXTT12=
EXTT13=
EXTT14=
EXTT15=
EXTT16=
EXTT17=
EXTT18=
PLAYORDER=
